<svg width="20" height="20" fill="none" xmlns="http://www.w3.org/2000/svg"><path fill-rule="evenodd" clip-rule="evenodd" d="M18.27 8.806a6.461 6.461 0 01-.818 2.323c.032.178.048.358.048.538a3.35 3.35 0 01-.519 1.774c-.168.272-.211.591-.228.802-.019.241-.012.506.005.76.02.284.054.584.094.866-.325-.095-.678-.19-1.014-.266a7.261 7.261 0 00-.826-.144c-.226-.023-.553-.041-.845.053a6.778 6.778 0 01-2.084.322 6.705 6.705 0 01-2.401-.428 11.03 11.03 0 01-3.39-.364c1.314 1.52 3.48 2.459 5.79 2.459.903 0 1.77-.139 2.568-.393h.008c.02 0 .077-.002.183.009.167.017.382.056.63.112.494.111 1.049.275 1.48.413.918.29 1.806-.51 1.642-1.44-.07-.4-.144-.889-.172-1.312a3.7 3.7 0 01-.006-.516.973.973 0 01.013-.104 5.01 5.01 0 00.738-2.603c0-1.06-.33-2.03-.897-2.86z" fill="#787A80"/><path fill-rule="evenodd" clip-rule="evenodd" d="M4.664 4.749c-1.123.859-1.748 1.986-1.748 3.168 0 .59.154 1.157.441 1.684.11.201.141.409.152.549.012.153.006.31-.007.457a7.31 7.31 0 01-.166.957c-.09.385-.204.795-.32 1.18.44-.16.922-.325 1.378-.457.368-.108.74-.201 1.072-.254.285-.045.7-.09 1.056.034.8.277 1.696.433 2.644.433 1.79 0 3.379-.555 4.503-1.415 1.123-.859 1.747-1.986 1.747-3.168 0-1.182-.624-2.31-1.747-3.168-1.124-.86-2.713-1.415-4.503-1.415-1.789 0-3.378.555-4.502 1.415zM3.65 3.425c1.44-1.101 3.393-1.758 5.515-1.758 2.123 0 4.076.657 5.515 1.758 1.44 1.101 2.402 2.682 2.402 4.492s-.961 3.39-2.402 4.492c-1.44 1.101-3.392 1.758-5.515 1.758a9.774 9.774 0 01-3.159-.514c0 .002-.08-.005-.28.026a7.374 7.374 0 00-.867.207c-.67.196-1.425.473-1.999.697-.994.387-2.008-.569-1.673-1.586.178-.54.388-1.221.524-1.81.069-.296.113-.545.13-.73.006-.064.007-.11.007-.142a5.146 5.146 0 01-.6-2.398c0-1.81.962-3.39 2.402-4.492z" fill="#787A80"/></svg>